# xmcd CD database file
#
# Track frame offsets:
#	150
#	14921
#	26696
#	39224
#	50813
#	62580
#	74988
#	88474
#	105386
#	118302
#	133908
#	141943
#	151963
#	166258
#	179752
#	189022
#	203515
#	216305
#	225669
#	235969
#	251120
#	258046
#	274831
#	284234
#	307858
#
# Disc length: 4277 seconds
#
# Revision: 19
# Processed by: cddbd v1.5.2PL0 Copyright (c) Steve Scherf et al.
# Submitted via: ACXtractor (MTCDDB.DLL V2003.12.21)
#
DISCID=8410b319
DTITLE=Various Artist - Golden Country Hits - Vol.2
DYEAR=1997
DGENRE=Country
TTITLE0=Bellamy Brothers - Dancing Cowboys
TTITLE1=Frankie Lane - Mule Train
TTITLE2=Lynn Anderson - Stand By Your Man
TTITLE3=Johnny Cash - Big River
TTITLE4=Kenny Rodgers - Me and Bobby McGee
TTITLE5=Frankie Lane - High Noon (Do Not Forsake Me)
TTITLE6=Bellamy Brothers - Do You Love As Good As You Look
TTITLE7=Carmen and Thompson - Indian Queens
TTITLE8=Lynn Anderson - Top Of The World
TTITLE9=Kenny Rodgers - For The Good Times
TTITLE10=Johnny Cash - Hey Good Looking
TTITLE11=Willie Nelson - Broken Promises
TTITLE12=B.J. Thomas - I'd Rather Be Lonely
TTITLE13=Carl Belew - Welcome Back To My World
TTITLE14=Dorsey Burnette - Together Again
TTITLE15=Waylon Jennings - Dream Baby (Instrumental)
TTITLE16=Oak Ridge Boys - You'll Never Walk Alone
TTITLE17=Marilyn Monroe - One Silver Dollar
TTITLE18=Don Williams - Take My Hand For A While
TTITLE19=Willie Nelson - Face Of A Fighter
TTITLE20=Boxcar Willie - I Saw The Light
TTITLE21=Ace Cannon - Me and Bobby McGee
TTITLE22=Johnny Paycheck - Mr. Lovemaker
TTITLE23=Phil Carmen - Call Me The Breeze (Live)
TTITLE24=Mickey Gilley - C.C. Rider
EXTD=YEAR: 1997 ID3G:   2
EXTT0=
EXTT1=
EXTT2=
EXTT3=
EXTT4=
EXTT5=
EXTT6=
EXTT7=
EXTT8=
EXTT9=
EXTT10=
EXTT11=
EXTT12=
EXTT13=
EXTT14=
EXTT15=
EXTT16=
EXTT17=
EXTT18=
EXTT19=
EXTT20=
EXTT21=
EXTT22=
EXTT23=
EXTT24=
PLAYORDER=
